<svg id="Capa_1" enable-background="new 0 0 512 512" height="512" viewBox="0 0 512 512" width="512" xmlns="http://www.w3.org/2000/svg"><g><g><g><g><g><g><g><path d="m74.321 436.357c-45.939-46.274-74.321-110.001-74.321-180.357 0-141.385 114.615-256 256-256s256 114.615 256 256c0 70.4-28.417 134.162-74.406 180.443z" fill="#bcdefa"/></g></g></g></g></g></g><path d="m437.593 436.443c43.095-43.368 70.76-102.086 74.072-167.231l-180.62-180.62-181.083 150.669 46.875 46.875-4.776 3.428 174.906 174.906z" fill="#92cbf7"/><g><g><circle cx="167.232" cy="219.33" fill="#d47f6c" r="26.379"/></g><g><circle cx="344.768" cy="219.33" fill="#cc6d58" r="26.379"/></g></g><g><path d="m74.304 436.34c46.379 46.726 110.658 75.66 181.696 75.66s135.317-28.934 181.696-75.66v-37.865c0-35.712-28.951-64.663-64.663-64.663h-234.066c-35.712 0-64.663 28.95-64.663 64.663z" fill="#7584f2"/></g><g><path d="m437.696 398.475c0-35.712-28.951-64.663-64.663-64.663h-116.912v178.187c70.99-.033 135.223-28.959 181.576-75.659v-37.865z" fill="#606aea"/></g><g><path d="m256 374.884c27.105 0 50.22-17.085 59.164-41.073l-.093-.05c-11.9-6.361-19.33-18.758-19.33-32.252v-35.356h-79.483v35.356c0 13.493-7.43 25.89-19.33 32.252l-.093.05c8.945 23.989 32.06 41.073 59.165 41.073z" fill="#c15e4d"/></g><g><path d="m315.164 333.811-.093-.05c-11.9-6.361-19.33-18.758-19.33-32.251v-35.356h-39.621v108.728c27.054-.051 50.114-17.118 59.044-41.071z" fill="#af493c"/></g><g><path d="m256 315.862c-50.2 0-90.894-40.695-90.894-90.894v-47.851c0-50.199 40.695-90.894 90.894-90.894 50.199 0 90.894 40.695 90.894 90.894v47.851c0 50.199-40.694 90.894-90.894 90.894z" fill="#cc6d58"/></g><g><path d="m256.121 86.224v229.636c50.144-.065 90.774-40.734 90.774-90.893v-47.851c-.001-50.159-40.631-90.827-90.774-90.892z" fill="#c15e4d"/></g><g><path d="m349.5 200.351v-60.822c0-43.923-35.606-79.529-79.528-79.529h-27.944c-43.922 0-79.528 35.606-79.528 79.528v60.822c16.364 0 29.871-34.859 31.877-62.824 0 .001 40.165 58.431 155.123 62.825z" fill="#636978"/></g><g><path d="m349.5 139.528c0-43.922-35.606-79.528-79.528-79.528h-13.851v121.259c23.24 9.7 53.898 17.583 93.379 19.092z" fill="#414952"/></g></g></svg>